<svg xmlns="http://www.w3.org/2000/svg" viewBox="0 0 450.1 315.87"><defs><style>.cls-1{font-size:139px;font-family:AmaticSC-Bold, Amatic SC;font-weight:700;}</style></defs><g id="Layer_2" data-name="Layer 2"><g id="Layer_1-2" data-name="Layer 1"><text class="cls-1" transform="translate(111.43 178.6)">&amp;</text><path d="M258.4,340V324.4h31.2V75.6H258.4V60h80.4V75.6H306V190.8H478V75.6H445.2V60h80.4V75.6H494.4V324.4h31.2V340H445.2V324.4H478V206.8H306V324.4h32.8V340Z" transform="translate(-83.9 -60)"/><path d="M153.5,341V325.4h32.8V76.6H99.5v46H83.9V61H305.1v61.6H289.5v-46H202.7V325.4h31.2V341Z" transform="translate(-83.9 -60)"/><path d="M98.31,374.91v-1.17h2.47V355.08H94.24v3.45H93.07v-4.62h16.67v4.62h-1.18v-3.45H102v18.66h2.35v1.17Z" transform="translate(-83.9 -60)"/><path d="M118.87,374.91v-1.17h2.32q2.2-5.25,4.44-10.4T130.06,353c1.46,3.5,2.94,7,4.41,10.39s3,6.9,4.45,10.4h2.32v1.17h-5.79v-1.17h2.2L136,369.81l-1.67-3.93h-8.5l-1.66,3.93c-.5,1.18-1.07,2.49-1.69,3.93h2.23v1.17Zm9.18-14.27c-.59,1.37-1.17,2.73-1.73,4.07h7.48l-3.47-8.16-.27-.87a2.69,2.69,0,0,1-.14.45c0,.12-.1.26-.16.42C129.21,357.91,128.64,359.27,128.05,360.64Z" transform="translate(-83.9 -60)"/><path d="M159.12,374.74a7.53,7.53,0,0,1-2.47.41,9.42,9.42,0,0,1-2.19-.24,7.7,7.7,0,0,1-1.76-.63,7,7,0,0,1-1.39-.8,5.75,5.75,0,0,1-.9-.82v-3.21h1.2v2.7a7.62,7.62,0,0,0,2,1.29,7.08,7.08,0,0,0,2.9.54,5.89,5.89,0,0,0,2-.33,6.16,6.16,0,0,0,1.68-.9,4.87,4.87,0,0,0,1.15-1.46,4,4,0,0,0,.45-1.9,4.87,4.87,0,0,0-.31-1.83,3.54,3.54,0,0,0-.89-1.29,4.55,4.55,0,0,0-1.41-.95c-.53-.23-1.1-.45-1.7-.67l-2.15-.66a9.63,9.63,0,0,1-2-.84,4.84,4.84,0,0,1-1.54-1.41,4.38,4.38,0,0,1-.66-2.34,6.59,6.59,0,0,1,.26-2,4.88,4.88,0,0,1,2.66-3.12,6,6,0,0,1,2.57-.49q.51,0,1.11.06a9.45,9.45,0,0,1,1.24.21,6.38,6.38,0,0,1,1.25.46,6.77,6.77,0,0,1,1.22.77v3.24H160.2v-2.64a6.19,6.19,0,0,0-1.49-.65,7.28,7.28,0,0,0-2.15-.28,4.55,4.55,0,0,0-1.89.36,3.69,3.69,0,0,0-1.31,1,4.12,4.12,0,0,0-.77,1.35,4.81,4.81,0,0,0-.25,1.56,3,3,0,0,0,.66,2.08,4.81,4.81,0,0,0,1.69,1.19,14.57,14.57,0,0,0,2.64.9,13.82,13.82,0,0,1,2.75,1,5.7,5.7,0,0,1,2.07,1.77,5.54,5.54,0,0,1,.86,3.21,5.69,5.69,0,0,1-.5,2.4,5.49,5.49,0,0,1-1.34,1.83A6,6,0,0,1,159.12,374.74Z" transform="translate(-83.9 -60)"/><path d="M177.06,374.91v-1.17h2.47V355.08H173v3.45h-1.18v-4.62h16.67v4.62h-1.17v-3.45h-6.54v18.66h2.35v1.17Z" transform="translate(-83.9 -60)"/><path d="M204.85,374.91v-1.17h2.23V367q-1.8-3-3.57-5.94t-3.57-5.94h-2.32v-1.17h6.06v1.17h-2.23l3,5,3,5,.36.84h0l.33-.84,5.94-10h-2.17v-1.17H218v1.17h-2.38q-1.76,3-3.53,5.95c-1.19,2-2.37,4-3.56,5.93v6.78h2.35v1.17Z" transform="translate(-83.9 -60)"/><path d="M243.2,374.91v-1.17h2.32q2.21-5.25,4.43-10.4T254.39,353q2.19,5.25,4.41,10.39t4.45,10.4h2.32v1.17h-5.79v-1.17H262l-1.67-3.93-1.67-3.93h-8.51q-.9,2.16-1.65,3.93l-1.69,3.93H249v1.17Zm9.18-14.27c-.59,1.37-1.17,2.73-1.73,4.07h7.47l-3.46-8.16-.27-.87a4.12,4.12,0,0,1-.14.45c-.05.12-.11.26-.17.42C253.54,357.91,253,359.27,252.38,360.64Z" transform="translate(-83.9 -60)"/><path d="M295.57,375.87l-16.71-19.2-.54-.69.06.87v16.89h2.38v1.17H274.7v-1.17h2.45V355.08H274.7v-1.17H278l15.89,18.42.57.78-.09-1V355.08H292v-1.17h6.06v1.17h-2.53Z" transform="translate(-83.9 -60)"/><path d="M307.23,374.91v-1.2h1.9V355.08h-1.9v-1.17h6.33a11.47,11.47,0,0,1,4.11.73,10.23,10.23,0,0,1,3.37,2.09,9.94,9.94,0,0,1,2.29,3.33,10.89,10.89,0,0,1,.85,4.35,11.54,11.54,0,0,1-.62,3.63,9.36,9.36,0,0,1-2,3.39,10.37,10.37,0,0,1-3.6,2.5,13.41,13.41,0,0,1-5.41,1Zm3.14-1.2H313a11.24,11.24,0,0,0,4.39-.8,9.09,9.09,0,0,0,3.12-2.11,8.55,8.55,0,0,0,1.85-3,10.13,10.13,0,0,0-.12-7.29,8.78,8.78,0,0,0-2-2.95,9.46,9.46,0,0,0-3-1.86,10,10,0,0,0-3.64-.66h-3.19Z" transform="translate(-83.9 -60)"/><path d="M349.38,374.91v-1.17h2.35V355.08h-2.35v-1.17h6.06v1.17H353v8.64h13v-8.64h-2.47v-1.17h6.06v1.17h-2.35v18.66h2.35v1.17h-6.06v-1.17h2.47v-8.82H353v8.82h2.47v1.17Z" transform="translate(-83.9 -60)"/><path d="M378.65,374.91v-1.17h2.17V355.08h-2.17v-1.17h14.68v4.62h-1.17v-3.45h-10.1v8.64h10.1v1.2h-10.1v8.82h10.52v-3.45h1.18v4.62Z" transform="translate(-83.9 -60)"/><path d="M402.89,374.91v-1.17h2.32q2.21-5.25,4.43-10.4T414.08,353c1.46,3.5,2.94,7,4.41,10.39s3,6.9,4.45,10.4h2.32v1.17h-5.79v-1.17h2.2L420,369.81l-1.67-3.93h-8.5l-1.66,3.93-1.69,3.93h2.23v1.17Zm9.18-14.27c-.59,1.37-1.17,2.73-1.73,4.07h7.47l-3.46-8.16-.27-.87a2.69,2.69,0,0,1-.14.45c-.05.12-.11.26-.17.42C413.23,357.91,412.66,359.27,412.07,360.64Z" transform="translate(-83.9 -60)"/><path d="M434.4,374.91v-1.17h2.08V355.08H434.4v-1.17h5.81v1.17h-2.5v18.66h10.52v-3.45h1.18v4.62Z" transform="translate(-83.9 -60)"/><path d="M463.79,374.91v-1.17h2.47V355.08h-6.54v3.45h-1.18v-4.62h16.68v4.62H474v-3.45H467.5v18.66h2.35v1.17Z" transform="translate(-83.9 -60)"/><path d="M484.35,374.91v-1.17h2.35V355.08h-2.35v-1.17h6.06v1.17h-2.47v8.64h13v-8.64h-2.47v-1.17h6.06v1.17h-2.35v18.66h2.35v1.17h-6.06v-1.17h2.47v-8.82h-13v8.82h2.47v1.17Z" transform="translate(-83.9 -60)"/><path d="M520.86,374.91v-1.17h2.23V367q-1.82-3-3.57-5.94T516,355.08h-2.33v-1.17h6.06v1.17h-2.23q1.54,2.52,3,5t3,5l.36.84h0l.33-.84,5.94-10h-2.17v-1.17H534v1.17h-2.38q-1.74,3-3.53,5.95L524.54,367v6.78h2.35v1.17Z" transform="translate(-83.9 -60)"/></g></g></svg>